PathFileType	4	(X/Y/Z)	23_1_23_p0_0-588_filt_butterworth.trc
DataRate	CameraRate	NumFrames	NumMarkers	Units	OrigDataRate	OrigDataStartFrame	OrigNumFrames
59.0	59.0	5	27	m	59.0	514	588
Frame#	Time	RHip			RKnee			RAnkle			RBigToe			RSmallToe			RHeel			LHip			LKnee			LAnkle			LBigToe			LSmallToe			LHeel			Neck			Head			Nose			RShoulder			RElbow			RWrist			RThumb			RIndex			RPinky			LShoulder			LElbow			LWrist			LThumb			LIndex			LPinky			
		X1	Y1	Z1	X2	Y2	Z2	X3	Y3	Z3	X4	Y4	Z4	X5	Y5	Z5	X6	Y6	Z6	X7	Y7	Z7	X8	Y8	Z8	X9	Y9	Z9	X10	Y10	Z10	X11	Y11	Z11	X12	Y12	Z12	X13	Y13	Z13	X14	Y14	Z14	X15	Y15	Z15	X16	Y16	Z16	X17	Y17	Z17	X18	Y18	Z18	X19	Y19	Z19	X20	Y20	Z20	X21	Y21	Z21	X22	Y22	Z22	X23	Y23	Z23	X24	Y24	Z24	X25	Y25	Z25	X26	Y26	Z26	X27	Y27	Z27	
514	8.711864406779661	0.1851892978509811	0.8680111987747261	0.46559384333452747	0.18797439189405893	0.4279661183560665	0.4833022335409921	0.162871069611665	0.06517505790386044	0.471639561449167	0.13598015396183982	0.040094450158182124	0.3832325771568292	0.19553103934153562	0.056004419106109427	0.3667696808084387	0.16730187339020375	0.01239954310051499	0.49720642042447094	-0.0071340712221233315	0.8668206063893311	0.4815168789331618	-0.033940064075506156	0.42778952264260817	0.525935483059289	-0.02542759248245327	0.039215491485215026	0.5487854974660528	-0.02333397724213606	0.04590515092997488	0.37895483395114915	-0.06687064519482985	0.03697261676050508	0.42077412518043406	-0.015498713756159471	0.005382477887864704	0.5658038959468275	0.08293242418853594	1.4423088957856733	0.4623697073312115	0.07205950177413639	1.6817767202354348	0.4130144217325267	0.04630067931678529	1.557595617943007	0.352111508749312	0.20895097719040512	1.3366897522701302	0.44982507263822064	0.23277508874028396	1.0714943595324338	0.43090707848446475	0.14094239302826578	0.8770284783275033	0.33363889590784074	0.052310850734165665	0.7994658458795686	0.3156835256133378	0.0552166680117714	0.7855308323881376	0.3408224889937463	0.0712896164169437	0.7798629114046399	0.356442537489194	-0.0528153685182452	1.3391932068740755	0.5385513261212476	-0.07938447506529855	1.0755097506413904	0.4682176588390955	0.02406273833857398	0.8786947404223908	0.3566813605052324	0.07919064794520667	0.8147132020393694	0.31596112131319554	0.08472546677381157	0.7990783778589079	0.31449189775400344	0.053686513335047856	0.7808328292770872	0.3544658675623741	
515	8.728813559322035	0.1852117371511415	0.8679902342160319	0.4656342577719757	0.187944676944969	0.4277460358908261	0.48318793250090075	0.16287771305396667	0.06510622151738858	0.4716439228095048	0.13712580825737958	0.03858948247254512	0.3859304742785905	0.19595902131587922	0.05481165808344703	0.36735931720649945	0.16700625661118962	0.012245537522910514	0.4980780604667304	-0.007258802741400733	0.8664648578837418	0.48245902463921847	-0.03393291984951778	0.4272453705399987	0.5257987088488202	-0.025482211269475977	0.03896404495167606	0.5488313276934021	-0.022474566385914104	0.04474377573483227	0.3813109211912135	-0.06580795119651725	0.03579485515457222	0.4231584553940706	-0.015032746969184621	0.005195819202252046	0.5660572313496641	0.08239780336681526	1.4416731996344632	0.46490989968891666	0.07197890481016118	1.682484877566119	0.4128060927534765	0.04553183990734786	1.5569868214676807	0.3523281087493464	0.20890138435387873	1.3371601467085235	0.4501055272092981	0.23268973051792718	1.0729654303843066	0.43085226369190704	0.14093329128388365	0.8769679859795818	0.33360068074411126	0.052450213334455195	0.7994791080808721	0.3156567355801947	0.055198361321103326	0.7855493823475158	0.3408387689616468	0.07042154476487618	0.7798284913166885	0.35657006050733664	-0.05278981968595067	1.3388284092542935	0.5387153282258839	-0.07927394535072951	1.0755433898056932	0.46833922989794285	0.02410639527430719	0.8787838131164336	0.3563805352926124	0.0789736343650838	0.814951339914803	0.31590077052222754	0.08356815652026688	0.7990248098714192	0.3146669809414981	0.05278936716930141	0.7809458195387255	0.35422945632696196	
516	8.745762711864407	0.18522930334487653	0.8679638859152464	0.46528511034596176	0.1879777830041026	0.4274681890805442	0.4831409526443769	0.1628842783848357	0.06504508475659543	0.4716569735755121	0.1382290712355384	0.03733440740990974	0.3884434931288508	0.1963706005499683	0.05357151830458363	0.3679288388829869	0.16673081827337558	0.012010494965060728	0.49905231354213625	-0.0074277793298707555	0.8661084168602564	0.48323225594176467	-0.03392551739090404	0.42659012507419775	0.5256810973418972	-0.025561546963013847	0.03861225852498264	0.5488932302934451	-0.021417659136621525	0.042900383731774475	0.384133572104978	-0.06460390658748894	0.03431422471640483	0.4261118427020983	-0.014560311335151543	0.004950049634197533	0.5662903379842461	0.08190991082397173	1.4412049740691038	0.4672698704771237	0.07207994574091074	1.683122853010031	0.41302252797452094	0.04478293911282048	1.556764061126292	0.3521122236870807	0.20892637487242452	1.3378695233817781	0.4498652687101439	0.2325468299653369	1.0745994177458764	0.43078648518521306	0.14093426746364873	0.8769555052960704	0.3335586993488351	0.052720788384525874	0.7993476798902288	0.31604075080317834	0.05520990451683776	0.7855239454348865	0.3409098096026667	0.07023872902989527	0.7795213037903859	0.35741784258690723	-0.05273217997588818	1.3382462306609075	0.5389293222235771	-0.07917350464327358	1.0755727541923665	0.4684715177892128	0.024046722307316373	0.8787145022242973	0.3566017854454231	0.0787896785762407	0.815014607563372	0.3156717077479629	0.08247810994874061	0.798859855565196	0.31516469120919965	0.051913941416448804	0.781047200421792	0.35402094841208975	
517	8.76271186440678	0.18522567120610955	0.8679395096661047	0.4647543070597175	0.18806895982821983	0.4273162803188749	0.48313655955113843	0.16289072138555497	0.06500230476433747	0.4716778734080984	0.13912087257435576	0.036485408987572084	0.39037520683497656	0.19671682317520583	0.052473882217817604	0.36840505871986723	0.16647746699027843	0.011831782091792128	0.49992938116073493	-0.007624761940240352	0.8657817369133965	0.483774569254777	-0.03389887042827843	0.42587301757023327	0.525620117838986	-0.02564797867957608	0.03823374375294897	0.5489617207686036	-0.020386830783933687	0.04080818883045798	0.3868535762102961	-0.06370807094842493	0.03300499933998091	0.4286713718000319	-0.014140895005850078	0.004713378326767827	0.5664900534734538	0.08153739382248365	1.4409717851087545	0.4691111385151942	0.07246960073087541	1.6835908481496542	0.4139195093423248	0.04406524066041993	1.5569580404997212	0.35187782151774005	0.20897653983616576	1.338651290201512	0.4495639489078957	0.23235076630053397	1.076147881108089	0.4307215690910188	0.1409435299043284	0.8769603458588082	0.33352869992618656	0.053056324015091055	0.7988998395797435	0.31732430055105104	0.05522336019258901	0.7854899151077537	0.34098891939105547	0.07071416318515822	0.77895814477716	0.3589569042836705	-0.05265042908620614	1.337529179821662	0.5391625343429247	-0.07910351445814225	1.0755995518304302	0.46857952642116163	0.023811774557469818	0.8783777962453697	0.3576753099304775	0.07867731909889855	0.8150269375078463	0.3154837142577327	0.08165176349121969	0.7984781028910258	0.3162831542605606	0.05120766107302797	0.781115632702925	0.35387763889315693	
518	8.779661016949152	0.18516334182232214	0.8679311129264192	0.46437096727063687	0.18818525772102518	0.42749149502958445	0.48313589104374227	0.1628967932887224	0.064990242308947	0.4717065655716	0.139664352543738	0.03599870723312361	0.3914372688782682	0.196962359395762	0.05167789301614397	0.36871001960300875	0.16626020326562146	0.011787078691427153	0.5006533950157295	-0.007837786522583389	0.8655174415823058	0.4840278185006421	-0.03384685241655226	0.425217309531062	0.5256284396902822	-0.025723032232252075	0.037904600064231825	0.5490265641974802	-0.019702096374074073	0.0390001529098053	0.3886476558873051	-0.06345258719062521	0.03231110327006158	0.42987082782705527	-0.013805196397545226	0.004546704466928429	0.566657323745069	0.08133338430585133	1.4410112688128518	0.47017195886080687	0.07313542371535331	1.6838226966010146	0.41546828326321017	0.043498877454819077	1.557493578044464	0.3518227184790751	0.20905138895041744	1.339366684705909	0.44945035486692686	0.2321300323960903	1.0773625541087748	0.4306830025260251	0.1409580852396239	0.8769633077460866	0.3335205237774552	0.05340904739735888	0.7980086187691706	0.3198653509426877	0.05522499327941584	0.7854553334730745	0.3410734985321699	0.0716435360246798	0.7782190977244213	0.36093539374312494	-0.05255991713840441	1.3367757609129258	0.5393957598081645	-0.07907682541882026	1.0756219262486357	0.46865407339865217	0.02340542619737248	0.877776424218598	0.35957838014507315	0.07863778019442431	0.8150554501895716	0.31575938454807073	0.08126558311685565	0.7978537389723019	0.3180864025554107	0.05073649529592709	0.7811476086837671	0.3538086798133859	
